<?xml version="1.0" standalone="no"?>
<!DOCTYPE svg PUBLIC "-//W3C//DTD SVG 20010904//EN"
 "http://www.w3.org/TR/2001/REC-SVG-20010904/DTD/svg10.dtd">
<svg version="1.0" xmlns="http://www.w3.org/2000/svg"
 width="300.000000pt" height="300.000000pt" viewBox="0 0 300.000000 300.000000"
 preserveAspectRatio="xMidYMid meet">
<metadata>
Created by potrace 1.11, written by Peter Selinger 2001-2013
</metadata>
<g transform="translate(0.000000,300.000000) scale(0.100000,-0.100000)"
fill="#000000" stroke="none">
<path d="M2358 2906 c-10 -7 -15 -16 -11 -19 3 -4 2 -7 -4 -7 -6 0 -34 -25
-64 -56 -30 -30 -60 -61 -67 -67 -7 -7 -121 -119 -253 -249 -132 -131 -244
-238 -249 -238 -6 0 -9 -4 -7 -8 3 -10 -161 -171 -168 -164 -3 3 -5 0 -5 -7 0
-6 -21 -31 -46 -54 -95 -86 -254 -248 -254 -257 0 -6 -4 -10 -9 -10 -12 0
-129 -118 -123 -125 3 -3 0 -5 -6 -5 -7 0 -29 -18 -49 -40 -21 -22 -44 -40
-50 -40 -7 0 -13 -8 -13 -18 0 -10 -10 -24 -22 -32 -12 -8 -47 -40 -79 -72
-31 -31 -60 -54 -63 -51 -3 4 -6 1 -6 -5 0 -15 -70 -78 -82 -74 -5 1 -7 -1 -4
-6 2 -4 -9 -23 -25 -41 -16 -19 -29 -31 -29 -27 0 4 -35 -29 -77 -75 -43 -45
-96 -100 -118 -122 -22 -22 -50 -54 -62 -71 -13 -16 -23 -26 -23 -21 0 5 -18
-9 -40 -31 -41 -41 -51 -64 -25 -64 8 0 15 -4 15 -9 0 -5 11 -12 24 -15 14 -3
31 -12 38 -19 7 -7 24 -18 38 -25 14 -7 52 -28 85 -47 33 -19 68 -37 78 -41 9
-3 17 -11 17 -16 0 -5 4 -7 9 -3 5 3 12 1 16 -5 3 -5 24 -14 45 -20 22 -6 40
-15 40 -21 0 -6 4 -8 9 -5 5 3 12 -1 15 -9 3 -8 9 -15 13 -14 17 2 53 -14 53
-24 0 -6 3 -7 6 -4 8 8 64 -24 64 -36 0 -4 4 -6 9 -2 5 3 16 -2 24 -10 9 -8
22 -15 31 -15 8 0 22 -8 32 -18 10 -9 19 -16 21 -15 7 5 39 -12 50 -26 7 -9
13 -13 13 -9 0 4 24 -7 52 -24 105 -62 168 -97 168 -92 0 3 12 -3 28 -14 15
-10 59 -34 97 -53 39 -19 72 -36 75 -39 8 -10 219 -111 223 -108 2 2 12 -5 21
-15 10 -10 31 -21 47 -24 16 -3 26 -9 23 -14 -3 -5 2 -9 10 -9 16 0 34 46 23
57 -4 3 0 18 8 33 8 16 17 43 20 62 2 18 6 40 8 48 7 27 16 84 22 128 2 24 9
60 14 80 5 20 9 44 9 52 0 8 7 41 15 73 17 69 15 56 23 117 4 28 11 50 16 50
5 0 7 4 4 9 -4 5 1 40 10 78 8 37 20 93 25 123 11 64 17 95 19 95 4 0 11 42
12 73 1 17 5 32 8 32 3 0 5 19 5 43 0 23 4 48 9 55 6 8 11 21 12 30 4 34 13
88 20 112 3 14 7 37 8 53 0 15 4 27 7 27 3 0 6 6 7 13 2 30 11 84 18 107 3 14
6 35 6 48 0 12 4 22 8 22 5 0 7 11 5 25 -1 14 1 28 6 30 4 3 8 13 8 23 0 23 6
54 13 72 4 8 6 22 6 30 0 21 9 58 18 72 5 7 3 8 -6 3 -10 -6 -11 -4 -4 6 4 8
9 19 10 24 1 6 5 24 9 40 14 68 18 91 19 118 1 15 4 27 7 27 6 0 7 5 12 55 3
25 8 53 23 118 1 4 3 9 4 12 1 3 2 17 3 33 0 15 4 29 8 32 3 3 9 25 12 50 3
25 10 59 15 75 5 17 8 40 7 53 -1 12 3 22 8 22 5 0 7 11 5 25 -3 14 -2 25 2
25 4 0 8 11 9 25 1 14 3 36 4 50 1 14 4 25 7 25 3 0 6 8 7 18 1 9 8 50 16 90
14 75 10 85 -25 58z"/>
</g>
</svg>
